<svg width="4023" height="805" viewBox="0 0 4023 805" fill="none" xmlns="http://www.w3.org/2000/svg">
<g clip-path="url(#clip0_191_224)">
<path fill-rule="evenodd" clip-rule="evenodd" d="M2265 0.489911C2251.89 1.18991 2236.47 3.15991 2222.73 5.88991C2154.84 19.3699 2108.11 56.4499 2086.71 113.82C2082.13 126.08 2079.35 137.12 2076.75 153.3C2074.81 165.34 2074.62 171.31 2074.25 232.32C2073.84 300.89 2074.34 315.05 2077.95 335.8C2090.05 405.34 2131.92 453.17 2198.68 473.75C2211.45 477.69 2235.49 482.41 2250 483.83C2264.81 485.28 2300.49 485.31 2314 483.87C2362.66 478.69 2402.39 463.82 2432.89 439.39C2442.15 431.97 2455.41 417.89 2462.81 407.61C2474.22 391.76 2481.87 375.3 2487.01 355.53C2493.05 332.36 2493.27 329.67 2493.74 274.44C2493.98 246.46 2493.89 222.03 2493.54 220.17C2492.75 215.99 2487.63 209.98 2483.3 208.17C2480.67 207.07 2463.86 206.82 2393 206.82C2316.91 206.82 2305.47 207.01 2302.25 208.36C2297.3 210.43 2295.07 212.56 2292.88 217.32C2291.24 220.9 2291.04 224.3 2291.02 249.5C2291.01 267.04 2291.4 278.75 2292.06 280.5C2293.23 283.59 2297.37 288.33 2300.5 290.15C2301.87 290.95 2313.42 291.47 2337 291.81L2371.5 292.31L2371.3 304.81C2371.06 319.38 2369.88 327.38 2366.42 337.94C2356.8 367.27 2331.86 384.53 2294.4 387.82C2282.12 388.9 2267.37 387.89 2257.56 385.31C2226.8 377.2 2208.58 357.57 2201.87 325.33C2198.7 310.07 2197.73 283.5 2198.3 226.82C2198.62 194.9 2199.28 171.44 2199.98 166.97C2203.77 142.74 2211.35 127.21 2225.27 115.08C2240.86 101.5 2268.03 94.7999 2295.5 97.7599C2325.08 100.95 2344.68 114.5 2361 143.04C2368.04 155.36 2361.96 154.27 2425.48 154.59C2465.34 154.79 2481.23 154.55 2483.25 153.71C2484.79 153.08 2487.22 151.16 2488.65 149.45C2491.18 146.45 2491.25 146.03 2490.69 136.83C2488.29 97.4699 2459.06 56.7299 2415.21 31.6299C2374.95 8.58991 2321.33 -2.53009 2265 0.489911ZM8.96 9.06991C5.7 10.7099 3.89 12.5199 2.25 15.7799L0 20.2499V242.83V465.4L2.25 469.84C3.58 472.47 5.93 475.1 8 476.3C11.47 478.31 12.7 478.32 175.5 478.32C339.14 478.32 339.51 478.31 343 476.27C344.92 475.14 347.52 472.69 348.78 470.82L351.07 467.43L350.79 429.38C350.51 391.84 350.48 391.29 348.28 388.2C343.45 381.42 351.09 381.83 227.61 381.83H116V334.84V287.85L218.43 287.59C320.11 287.33 320.88 287.31 323.62 285.26C325.14 284.13 327.31 281.96 328.44 280.44C330.43 277.77 330.5 276.48 330.5 241.42V205.16L327.62 201.38C322.32 194.43 328.77 194.81 217.03 194.81H116V149.32V103.83L225.93 103.57C335.19 103.31 335.87 103.29 338.62 101.25C340.14 100.12 342.31 97.9499 343.44 96.4299C345.39 93.8299 345.53 91.9899 346 63.9899L346.5 34.3099L352.16 52.3099C355.27 62.2099 366.66 98.2099 377.47 132.31C388.28 166.41 400.95 206.46 405.64 221.31C410.32 236.16 416.11 254.38 418.51 261.81C420.91 269.24 426.76 287.69 431.51 302.81C436.27 317.93 441.89 335.71 444.01 342.31C446.13 348.91 451.75 366.69 456.51 381.81C461.27 396.93 467.12 415.39 469.52 422.81C471.92 430.24 475.52 441.71 477.53 448.31C481.71 462.05 484.29 467.02 489.83 472.02C496.93 478.43 495.56 478.31 559.52 478.31C622.73 478.31 622.04 478.37 628.64 472.57C635.76 466.32 633.7 471.97 665.5 371.31C675.75 338.86 685.88 306.91 688.01 300.31C690.14 293.71 695.77 275.93 700.52 260.81C705.27 245.69 711.12 227.24 713.51 219.81C715.91 212.38 721.53 194.61 726.01 180.31C730.49 166.01 736.11 148.23 738.51 140.81C740.91 133.38 746.54 115.61 751.02 101.31C755.51 87.0099 760.83 70.3599 762.84 64.3099L766.51 53.3099L767 261L767.5 468.68L769.6 471.5C770.76 473.05 773.23 475.22 775.1 476.32C778.46 478.3 780.29 478.32 942.5 478.32C1096.26 478.32 1106.7 478.21 1109.67 476.59C1111.42 475.64 1113.89 473.39 1115.17 471.59L1117.5 468.32V430.14C1117.5 393.14 1117.44 391.88 1115.44 389.2C1114.3 387.68 1112.13 385.51 1110.61 384.38C1107.87 382.33 1107.03 382.31 995.18 381.82L882.5 381.32V334.82V288.32L985 287.82L1087.5 287.32L1090.66 285.06C1092.4 283.82 1094.77 280.86 1095.91 278.49C1097.9 274.39 1098 272.59 1098 241.16C1098 208.53 1097.97 208.08 1095.68 203.74C1094.39 201.31 1091.82 198.45 1089.93 197.33C1086.57 195.36 1084.45 195.31 984.5 194.82L882.5 194.32V149.32V104.32L992.5 103.82L1102.5 103.32L1105.87 100.92C1112.71 96.0399 1112.95 94.4899 1112.98 55.2799C1113 20.9099 1112.96 20.1599 1110.75 15.7799C1109.1 12.5099 1107.3 10.7099 1104.01 9.05991L1099.53 6.79991L938.47 7.05991C784.94 7.30991 777.28 7.40991 774.65 9.12991C771.96 10.8899 771.77 10.8799 767.53 8.82991C763.26 6.75991 762.23 6.72991 716.84 7.01991C665.45 7.34991 667.34 7.10991 660.78 14.1699C656.2 19.0999 654.2 23.7999 648 44.2399C644.82 54.7299 639.19 73.2199 635.49 85.3199C631.79 97.4199 626.37 115.2 623.44 124.82C620.51 134.45 615.36 151.32 612 162.32C608.64 173.32 603.49 190.2 600.57 199.82C597.65 209.44 591.1 230.82 586.05 247.32C571 296.39 566.95 309.67 563.03 322.72C560.98 329.54 559.07 334.71 558.79 334.22C558.24 333.28 552.45 314.49 542.01 279.82C538.62 268.55 533.44 251.45 530.5 241.82C527.56 232.2 522.16 214.42 518.5 202.32C514.84 190.22 509.45 172.44 506.53 162.82C503.61 153.2 497.75 133.84 493.52 119.82C489.29 105.8 483.89 88.0199 481.52 80.3199C479.15 72.6199 474.15 56.2299 470.41 43.8899C462.68 18.3999 460.3 13.8699 452.45 9.82991L447.57 7.31991L402.54 7.01991C377.77 6.84991 356.06 6.97991 354.29 7.30991C352.52 7.63991 349.41 9.45991 347.39 11.3699C343.72 14.8299 343.71 14.8299 342.23 12.7199C341.41 11.5599 338.89 9.75991 336.63 8.72991C332.66 6.92991 326.65 6.85991 172.98 6.83991L13.42 6.81991L8.96 9.06991ZM1136.02 9.06991C1133.6 10.3099 1130.69 12.5899 1129.56 14.1399L1127.5 16.9599L1127.24 241.16L1126.99 465.36L1129.24 469.81C1130.58 472.45 1132.92 475.08 1135 476.29C1138.34 478.22 1140.46 478.33 1182.5 478.62C1206.7 478.79 1228.9 478.64 1231.84 478.29C1238.34 477.5 1244.39 472.66 1245.97 466.96C1246.62 464.64 1246.99 435.68 1246.99 387.54L1247 311.78L1281.23 312.04L1315.46 312.3L1319.24 319.23C1321.32 323.04 1329.84 339.46 1338.16 355.73C1346.48 372 1358.79 395.88 1365.5 408.8C1372.21 421.73 1381.35 439.5 1385.81 448.3C1394.75 465.95 1400.49 473.49 1407.22 476.43C1411.16 478.15 1415.2 478.32 1458.5 478.61C1484.35 478.78 1507.42 478.64 1509.78 478.29C1512.84 477.84 1515.18 476.58 1518.03 473.88C1521.67 470.42 1522 469.66 1522 464.88C1522 460.24 1521.16 458.16 1514.34 445.98C1506.67 432.28 1464.66 356.91 1441.37 315.06C1434.57 302.83 1429 292.37 1429 291.82C1429 291.27 1431.81 289.41 1435.25 287.68C1457.56 276.47 1478.72 257.3 1491.77 236.5C1506.96 212.3 1513.87 179.94 1511.07 146.17C1510.43 138.54 1509.24 129.14 1508.41 125.29C1507.58 121.44 1506.66 116.94 1506.36 115.29L1505.82 112.29L1567.4 112.55L1628.98 112.81L1629.24 290.05L1629.5 467.28L1631.68 470.78C1632.88 472.71 1635.36 475.18 1637.18 476.28C1640.38 478.21 1642.27 478.28 1690 478.28C1737.87 478.28 1739.62 478.21 1743 476.26C1745.07 475.06 1747.42 472.43 1748.75 469.8L1751 465.36V289.11V112.82H1811.26C1847.75 112.82 1872.87 112.43 1874.94 111.84C1879.47 110.54 1884.78 105.28 1886 100.87C1886.57 98.8299 1886.99 80.9899 1886.99 58.7899C1887 20.8099 1886.97 20.1899 1884.75 15.7899C1883.11 12.5299 1881.3 10.7199 1878.04 9.07991L1873.58 6.82991L1690.04 6.84991C1513.27 6.86991 1506.35 6.93991 1502.41 8.72991C1499.88 9.87991 1497.39 12.0699 1495.91 14.4599C1493.51 18.3099 1493.5 18.4999 1493.2 50.6299L1492.9 82.9299L1487.96 75.3699C1466.5 42.4899 1422.64 17.6999 1372.99 10.4099C1352.04 7.32991 1333.69 6.84991 1237.46 6.83991L1140.42 6.82991L1136.02 9.06991ZM2515 9.02991C2511.71 10.6999 2509.89 12.5299 2508.25 15.7799L2506 20.2399V242.87V465.5L2508.32 469.9C2509.61 472.33 2512.18 475.19 2514.07 476.31C2517.38 478.25 2519.2 478.32 2566 478.32C2612.73 478.32 2614.62 478.25 2617.82 476.32C2619.65 475.22 2622.12 472.75 2623.32 470.82L2625.5 467.32L2625.77 389.57L2626.05 311.82H2660.51H2694.98L2700.1 322.07C2704.86 331.59 2713.54 348.48 2756.77 432.32C2767.1 452.37 2774.9 466.25 2777.64 469.49C2785.31 478.55 2783.66 478.32 2841.68 478.32C2890.79 478.32 2891.91 478.28 2894.61 476.26C2899.44 472.66 2901.51 469.04 2901.41 464.39C2901.31 459.89 2904.44 465.7 2831.01 333.83C2820.45 314.85 2810.95 297.93 2809.9 296.21C2808.85 294.5 2808 292.61 2808 292.02C2808 291.43 2810.81 289.53 2814.25 287.8C2841.77 273.91 2866.26 249.08 2878.37 222.79C2893.3 190.35 2895.1 144.19 2882.87 107.32C2864.93 53.2499 2817.31 19.4799 2744.5 9.19991C2733.99 7.70991 2719.3 7.45991 2626 7.11991L2519.5 6.72991L2515 9.02991ZM2914.27 8.90991C2911.87 10.0999 2909.07 12.5799 2907.77 14.6599L2905.5 18.3199L2905.23 239.32C2905.05 393.84 2905.29 461.88 2906.04 465.51C2907.54 472.75 2912.69 477.41 2920.16 478.29C2923.1 478.64 2997.5 478.79 3085.5 478.62C3243.46 478.32 3245.54 478.29 3248.82 476.32C3250.65 475.22 3253.12 472.75 3254.32 470.82C3256.44 467.42 3256.51 466.33 3256.78 431.32C3257.07 395.54 3257.05 395.29 3254.78 390.83C3253.53 388.36 3250.97 385.32 3249.1 384.08L3245.7 381.82H3133.35H3021V334.82V287.82H3122.55C3208.02 287.82 3224.53 287.6 3226.8 286.41C3230.85 284.29 3234.92 279.59 3236.02 275.75C3237.43 270.83 3237.3 211.01 3235.86 206.72C3234.41 202.37 3230.39 197.96 3226.28 196.2C3223.62 195.06 3205.6 194.82 3122.03 194.82H3021V149.32V103.82H3129.84H3238.69L3242.99 101.54C3251.15 97.2199 3251.08 97.6399 3250.77 54.1199L3250.5 15.9199L3247.04 12.3599C3245.14 10.3999 3241.99 8.34991 3240.04 7.80991C3237.79 7.17991 3178.76 6.81991 3077.5 6.81991H2918.5L2914.27 8.90991ZM3279.4 8.72991C3277.15 9.74991 3274.22 12.1099 3272.9 13.9599L3270.5 17.3299L3270.26 241.83L3270.03 466.33L3272.26 470.27C3273.49 472.44 3276.08 475.14 3278 476.27C3281.49 478.32 3281.82 478.33 3445.5 478.33C3607.7 478.33 3609.54 478.31 3612.9 476.33C3614.76 475.23 3617.24 473.06 3618.4 471.51C3620.45 468.75 3620.5 467.77 3620.5 430.01C3620.5 391.6 3620.48 391.31 3618.27 388.21C3613.44 381.43 3621.08 381.84 3497.6 381.84H3386V334.84V287.84H3487.03C3598.76 287.84 3592.32 288.22 3597.62 281.27L3600.5 277.49L3600.79 242.69C3601.06 209.48 3600.98 207.71 3599.06 203.94C3597.95 201.77 3595.57 198.94 3593.77 197.66L3590.5 195.33L3488.25 195.07L3386 194.79V149.3V103.81H3494.53C3614.53 103.81 3607.3 104.21 3612.62 97.2399L3615.5 93.4599L3615.75 56.3799C3616 19.5199 3615.99 19.2799 3613.75 15.2999C3612.27 12.6799 3609.96 10.5199 3607.03 9.04991L3602.58 6.79991L3443.04 6.81991C3289.62 6.85991 3283.34 6.93991 3279.4 8.72991ZM3645.97 7.75991C3641.76 9.03991 3639 11.1399 3636.69 14.8199L3634.5 18.3199L3634.19 239.32C3633.98 396.3 3634.2 461.79 3634.98 465.41C3636.34 471.76 3640.69 476.24 3647 477.8C3650.06 478.56 3665.14 478.82 3694 478.62C3741.11 478.29 3740.31 478.4 3745.17 471.59L3747.5 468.32L3748 342.82L3748.5 217.32L3764.07 240.82C3772.63 253.74 3786.55 274.89 3795.01 287.82C3811.8 313.49 3851.5 374.09 3869.7 401.82C3876.01 411.44 3888 429.72 3896.34 442.42C3904.68 455.13 3913.26 467.67 3915.42 470.29C3922.06 478.38 3921.42 478.27 3964 478.64C4008.21 479.03 4010.79 478.82 4015.7 474.5C4022.5 468.54 4022 486.88 4022 242.56V20.2499L4019.75 15.7899C4018.11 12.5299 4016.3 10.7199 4013.04 9.07991C4008.62 6.84991 4008.2 6.82991 3965 6.82991C3921.79 6.82991 3921.39 6.84991 3916.99 9.07991C3914.36 10.4099 3911.72 12.7599 3910.52 14.8299C3908.53 18.2799 3908.49 20.1199 3908 148.26L3907.5 278.19L3896.89 261.26C3891.05 251.95 3880.74 235.55 3873.98 224.83C3867.22 214.1 3858 199.48 3853.5 192.33C3832.75 159.35 3822.22 142.62 3816.84 134.08C3808.89 121.48 3803.3 112.61 3774.77 67.2399C3740.86 13.3199 3741.55 14.3499 3737.81 11.4999C3735.97 10.0999 3732.44 8.47991 3729.98 7.90991C3724.77 6.69991 3649.87 6.57991 3645.97 7.75991ZM1348.5 103.23C1367.87 108.98 1380.92 122.63 1385.46 141.92C1387.45 150.34 1387.46 168.61 1385.48 176.36C1381.54 191.79 1372.2 203.71 1359 210.15C1346.07 216.46 1342.4 216.83 1291.94 216.83H1247V158.78V100.73L1294.75 101.1C1336.92 101.41 1343.2 101.66 1348.5 103.23ZM2727.33 103.11C2747.32 109.02 2759.3 121.49 2764.64 141.93C2766.67 149.71 2766.88 167.02 2765.04 174.82C2761.24 190.98 2751.97 203.27 2738.65 209.84C2725.14 216.5 2722.37 216.78 2671.25 216.8L2626 216.82V158.77V100.72L2673.75 101.05C2715.37 101.35 2722.25 101.61 2727.33 103.11ZM1843.47 204.22C1839.51 205.94 1834.82 210.97 1833.33 215.07C1832.56 217.21 1832.13 226.64 1832.08 242.61C1832.01 262.39 1832.29 267.58 1833.55 270.6C1835.61 275.54 1838.66 278.71 1843.5 280.94C1847.28 282.68 1851.83 282.79 1926.28 282.81C1994.95 282.83 2005.54 282.64 2008.75 281.29C2013.52 279.3 2015.77 277.2 2018.15 272.53C2019.95 269 2020.07 266.81 2019.79 241.45L2019.5 214.17L2016.69 210.49C2015.15 208.47 2012.13 205.92 2009.98 204.82C2006.18 202.88 2004.02 202.83 1926.29 202.87C1862.41 202.89 1845.89 203.16 1843.47 204.22ZM482 662.57C473.41 664.9 467.61 668.42 461.18 675.22C455.45 681.28 452.09 687.66 449.29 697.82C447.76 703.37 447.5 708.5 447.5 732.82C447.5 757.35 447.76 762.21 449.32 767.75C455.71 790.33 470.41 802.47 493.68 804.42C509.36 805.73 526.9 801.13 536.25 793.26C544.57 786.26 550.21 776.32 551.92 765.66C552.93 759.34 551.89 757.83 546.57 757.83C541.52 757.83 540.7 758.64 539.1 765.2C535.24 781.01 524.71 789.79 506.77 792.16C488.16 794.62 471.41 787.22 464.8 773.63C460.3 764.38 459.54 758.34 459.58 732.33C459.63 699.34 461.5 692.06 472.5 682.01C479.71 675.42 487.44 672.83 499.9 672.83C514.85 672.83 526.3 677.3 532.68 685.63C534.24 687.66 536.86 693.37 538.51 698.33L541.51 707.33L546.2 707.63C552.5 708.04 553.38 706.4 551.54 697.61C548.16 681.44 537.46 669.47 521.19 663.63C512.99 660.69 491.12 660.1 482 662.57ZM811.77 662.38C794.16 666.65 782.69 678.76 777.26 698.83C774.66 708.42 774.68 757.07 777.28 767.26C779.91 777.55 784.5 786.06 790.44 791.69C800.27 800.99 809.92 804.26 827.49 804.26C854.24 804.26 869.04 794.61 876.54 772.28C878.68 765.91 879.34 761.44 880.08 748.28C881.16 729.26 879.89 703.98 877.45 695.83C872.09 677.93 858.4 665.13 841.1 661.85C833.68 660.43 818.66 660.71 811.77 662.38ZM1470.46 662.22C1457.63 665.34 1445.87 674.83 1442.44 684.83C1440.01 691.91 1439.97 702.62 1442.35 709.56C1445.89 719.84 1457.39 727.98 1478.3 734.97C1505.99 744.24 1516.56 749.07 1520.54 754.28C1523.79 758.54 1525.1 765.05 1523.93 771.18C1521.44 784.29 1511.53 791 1492.46 792.46C1472.02 794.03 1455.16 786.28 1450.55 773.2C1447.84 765.51 1447.67 765.34 1442.71 765.01C1436.91 764.63 1435.79 766.28 1437.09 773.25C1439.49 786.1 1451.55 797.32 1468.5 802.46C1477.74 805.26 1498.06 805 1508 801.95C1526.2 796.37 1535.73 785.52 1536.79 769.17C1537.36 760.36 1535.71 753.09 1531.96 747.92C1526.44 740.3 1516.75 735.27 1489.23 725.72C1470.11 719.09 1465.03 716.74 1459.97 712.17C1454.81 707.51 1453 703.53 1453 696.81C1453 681.43 1464.78 672.85 1485.93 672.82C1496.34 672.8 1504.05 674.88 1510.22 679.36C1515.79 683.4 1517.74 686.15 1520.02 693.14C1521.94 699.05 1524.96 700.93 1529.75 699.21C1532.29 698.3 1532.49 697.83 1532.37 693.12C1532.03 679.93 1517.14 665.49 1500.2 661.92C1493.35 660.49 1476.91 660.65 1470.46 662.22ZM3306.92 662.66C3294.52 665.9 3282.96 675.05 3277.39 686.04C3276.05 688.68 3274.03 694.75 3272.9 699.52C3271.02 707.43 3270.87 710.64 3271.2 735.76C3271.55 762.73 3271.62 763.5 3274.28 771.1C3277.55 780.45 3280.3 784.97 3286.43 791.1C3302.48 807.15 3335.72 809.28 3356.19 795.55C3363.94 790.35 3370.95 781.32 3373.94 772.69C3376.63 764.9 3378.82 740.35 3377.41 733.68L3376.49 729.33L3352.62 729.06C3335.85 728.87 3328.34 729.13 3327.38 729.93C3326.62 730.56 3326.01 732.48 3326.01 734.2C3326.04 740.26 3326.16 740.3 3346.46 740.64L3365 740.95L3364.99 749.14C3364.97 757.86 3363.03 767.93 3360.39 773.04C3348.94 795.19 3310.77 799.49 3293.35 780.59C3285.04 771.57 3282.45 757.59 3283.24 725.96C3283.79 703.71 3285.33 695.54 3290.4 687.98C3294.36 682.06 3302.84 676.3 3310.46 674.36C3321.72 671.48 3337.15 672.75 3345.9 677.28C3351.4 680.13 3358.91 688.37 3361.66 694.6C3364.53 701.1 3365.3 701.81 3369.5 701.81C3374.34 701.81 3375.35 700.62 3374.78 695.58C3373.2 681.52 3357.43 666.51 3339.91 662.38C3331.31 660.34 3315.26 660.48 3306.92 662.66ZM1112.2 664.02C1110.46 665.76 1110.46 799.89 1112.2 801.62C1113.82 803.24 1120.49 803.14 1121.87 801.48C1122.65 800.54 1123.06 783.49 1123.24 744.23L1123.5 688.32L1129.1 696.82C1134.48 705 1172.35 763.09 1187.77 786.82C1197.51 801.82 1198.47 802.82 1203.05 802.82C1205.09 802.82 1207.26 802.21 1207.89 801.46C1208.71 800.47 1208.94 781.4 1208.76 731.71L1208.5 663.32L1203.91 663.02C1200.9 662.82 1198.93 663.2 1198.17 664.11C1197.34 665.12 1196.95 680.95 1196.76 721.32L1196.5 777.14L1160.59 721.73C1140.84 691.25 1124 665.53 1123.18 664.57C1121.44 662.52 1114.07 662.16 1112.2 664.02ZM1763.97 664.89C1763.19 666.34 1762.98 681.05 1763.27 714.64C1763.71 767 1763.88 768.71 1770.05 780.92C1774.19 789.14 1780.58 795.26 1789.29 799.37C1810.13 809.2 1840.08 804.89 1852.98 790.2C1857.04 785.58 1861.65 776.26 1863.67 768.59C1865.05 763.32 1865.38 754.79 1865.73 714.66C1866.03 680.87 1865.83 666.38 1865.04 664.91C1864.18 663.31 1862.96 662.83 1859.67 662.83C1857.32 662.83 1854.86 663.37 1854.2 664.03C1853.3 664.93 1853 676.84 1853 711.48C1853 741.68 1852.61 759.57 1851.88 763.03C1849.22 775.68 1841.21 785.63 1830.2 789.97C1822.07 793.17 1806.93 793.17 1798.8 789.97C1787.65 785.58 1779.81 775.84 1777.11 763.03C1776.39 759.58 1776 741.84 1776 712.21C1776 682.75 1775.63 666.01 1774.96 664.76C1773.44 661.91 1765.51 662 1763.97 664.89ZM2101.67 663.49C2101.3 663.86 2101 694.82 2101 732.29C2101 783.95 2101.29 800.71 2102.2 801.62C2103.92 803.34 2183.08 803.34 2184.8 801.62C2185.46 800.96 2186 798.8 2186 796.82C2186 794.84 2185.46 792.68 2184.8 792.02C2183.91 791.13 2174.42 790.82 2148.3 790.82H2113V728.02C2113 680.51 2112.71 664.93 2111.8 664.02C2110.54 662.76 2102.8 662.35 2101.67 663.49ZM2371.03 664.76C2369.52 667.58 2369.77 671.45 2371.57 673.25C2372.9 674.58 2376.33 674.82 2393.57 674.82H2414V737.78C2414 799.01 2414.05 800.77 2415.93 801.78C2418.55 803.18 2423.33 803.09 2424.8 801.62C2425.71 800.71 2426 785.13 2426 737.62V674.82H2446.07C2457.98 674.82 2466.92 674.4 2468.07 673.78C2469.39 673.07 2470 671.68 2470 669.36C2470 662.29 2473.95 662.81 2420.43 662.81C2373.64 662.82 2372.04 662.89 2371.03 664.76ZM2694.2 664.02C2693.29 664.93 2693 681.61 2693 732.99C2693 798.96 2693.05 800.78 2694.93 801.79C2698.29 803.58 2702.75 803.03 2704.44 800.6C2705.81 798.64 2706 790.57 2706 733.17C2706 693.22 2705.62 666.96 2705.02 665.39C2704.18 663.18 2703.45 662.82 2699.73 662.82C2697.35 662.82 2694.86 663.36 2694.2 664.02ZM2942.71 663.44C2942.32 663.83 2942 694.81 2942 732.29C2942 783.95 2942.29 800.71 2943.2 801.62C2944.77 803.19 2950.16 803.16 2952.31 801.57C2953.85 800.43 2954.02 795.55 2954.25 744.35L2954.5 688.38L2991.28 745.01C3011.51 776.15 3028.76 801.9 3029.61 802.23C3031.99 803.14 3035.92 802.94 3038.07 801.79C3039.95 800.78 3040 798.96 3040 732.91C3040 675.39 3039.78 664.89 3038.57 663.88C3037.79 663.23 3035.2 662.84 3032.82 663.01L3028.5 663.32L3028 720.32L3027.5 777.32L3017.31 761.82C3011.7 753.29 2994.99 727.64 2980.16 704.82L2953.2 663.32L2948.31 663.02C2945.62 662.86 2943.1 663.05 2942.71 663.44ZM845.12 675.99C855.77 680.91 862.96 690.1 866.13 702.82C868.32 711.6 868.01 755.31 865.69 763.82C862.13 776.91 854.96 785.19 843 790C838.63 791.76 835.45 792.22 827.5 792.24C818.36 792.27 816.93 792 810.88 789.15C798.8 783.47 792.56 775.64 789.47 762.31C787.24 752.69 787.21 713.04 789.43 703.47C792.98 688.15 800.76 678.98 813.87 674.66C822.41 671.86 837.56 672.5 845.12 675.99Z" fill="#005A24"/>
<path fill-rule="evenodd" clip-rule="evenodd" d="M546.429 757.82C541.389 757.82 540.559 758.63 538.959 765.19C535.099 781 524.569 789.78 506.629 792.15C488.019 794.6 471.269 787.21 464.659 773.62C460.159 764.37 459.399 758.33 459.439 732.32C459.489 699.33 461.359 692.04 472.359 681.99C479.569 675.41 487.299 672.82 499.759 672.82C514.709 672.82 526.159 677.29 532.529 685.62C534.089 687.65 536.709 693.37 538.359 698.32L541.359 707.32L546.049 707.62C552.349 708.03 553.219 706.39 551.389 697.6C547.999 681.43 537.309 669.46 521.029 663.62C512.849 660.69 490.979 660.1 481.859 662.57C473.269 664.9 467.469 668.42 461.039 675.22C455.309 681.28 451.959 687.66 449.149 697.82C447.619 703.36 447.359 708.5 447.369 732.82C447.369 757.35 447.619 762.21 449.189 767.75C455.579 790.33 470.269 802.47 493.549 804.41C509.229 805.72 526.769 801.12 536.119 793.25C544.439 786.25 550.079 776.31 551.789 765.65C552.799 759.33 551.759 757.82 546.429 757.82ZM877.319 695.82C871.959 677.92 858.269 665.12 840.969 661.84C833.539 660.43 818.519 660.7 811.629 662.37C794.019 666.64 782.559 678.75 777.119 698.82C774.519 708.41 774.539 757.06 777.149 767.25C779.779 777.54 784.359 786.05 790.309 791.68C800.139 800.98 809.789 804.25 827.359 804.25C854.109 804.25 868.909 794.6 876.409 772.27C878.549 765.9 879.209 761.43 879.949 748.27C881.029 729.25 879.759 703.97 877.319 695.82ZM865.549 763.82C861.999 776.91 854.819 785.19 842.859 790C838.489 791.76 835.309 792.22 827.359 792.24C818.219 792.27 816.789 792 810.739 789.16C798.659 783.48 792.419 775.65 789.329 762.32C787.099 752.7 787.069 713.05 789.289 703.48C792.839 688.16 800.619 678.99 813.719 674.67C822.279 671.86 837.419 672.49 844.979 675.99C855.629 680.91 862.819 690.1 865.989 702.82C868.179 711.59 867.869 755.31 865.549 763.82ZM1531.82 747.92C1526.3 740.3 1516.61 735.27 1489.09 725.73C1469.97 719.09 1464.89 716.74 1459.83 712.18C1454.67 707.52 1452.86 703.54 1452.86 696.82C1452.86 681.44 1464.64 672.86 1485.79 672.83C1496.2 672.81 1503.91 674.89 1510.08 679.37C1515.65 683.41 1517.6 686.16 1519.88 693.15C1521.8 699.05 1524.82 700.94 1529.61 699.22C1532.15 698.3 1532.35 697.84 1532.23 693.13C1531.89 679.94 1517 665.5 1500.06 661.93C1493.21 660.49 1476.77 660.65 1470.32 662.21C1457.49 665.33 1445.73 674.82 1442.3 684.83C1439.87 691.91 1439.83 702.62 1442.21 709.55C1445.75 719.84 1457.25 727.97 1478.16 734.97C1505.85 744.23 1516.42 749.06 1520.4 754.28C1523.65 758.54 1524.96 765.04 1523.79 771.18C1521.3 784.29 1511.39 791 1492.32 792.46C1471.88 794.03 1455.02 786.28 1450.41 773.2C1447.7 765.52 1447.53 765.34 1442.57 765.02C1436.77 764.63 1435.65 766.28 1436.95 773.25C1439.35 786.11 1451.41 797.32 1468.36 802.46C1477.6 805.26 1497.92 805 1507.86 801.95C1526.06 796.38 1535.59 785.53 1536.65 769.17C1537.22 760.37 1535.57 753.09 1531.82 747.92ZM3377.27 733.67L3376.35 729.32L3352.48 729.05C3335.71 728.86 3328.2 729.12 3327.24 729.92C3326.48 730.55 3325.87 732.47 3325.87 734.19C3325.9 740.25 3326.02 740.29 3346.32 740.63L3364.86 740.94L3364.85 749.13C3364.83 757.84 3362.89 767.92 3360.25 773.02C3348.8 795.18 3310.63 799.48 3293.21 780.58C3284.9 771.56 3282.31 757.58 3283.1 725.95C3283.65 703.7 3285.19 695.53 3290.26 687.97C3294.22 682.05 3302.7 676.29 3310.32 674.34C3321.58 671.46 3337.01 672.74 3345.76 677.27C3351.26 680.11 3358.77 688.36 3361.52 694.58C3364.39 701.08 3365.16 701.79 3369.36 701.79C3374.2 701.79 3375.21 700.6 3374.64 695.56C3373.06 681.5 3357.29 666.49 3339.77 662.36C3331.17 660.33 3315.12 660.47 3306.78 662.65C3294.38 665.89 3282.82 675.04 3277.25 686.03C3275.91 688.67 3273.89 694.74 3272.76 699.51C3270.88 707.41 3270.73 710.63 3271.06 735.75C3271.41 762.72 3271.48 763.49 3274.14 771.09C3277.41 780.44 3280.16 784.96 3286.29 791.09C3302.34 807.14 3335.58 809.27 3356.05 795.54C3363.8 790.35 3370.81 781.32 3373.8 772.68C3376.49 764.89 3378.68 740.34 3377.27 733.67ZM1208.62 731.71L1208.36 663.32L1203.77 663.02C1200.76 662.82 1198.79 663.2 1198.03 664.11C1197.2 665.12 1196.81 680.95 1196.62 721.32L1196.36 777.14L1160.45 721.73C1140.7 691.25 1123.86 665.53 1123.04 664.57C1121.3 662.52 1113.93 662.15 1112.06 664.02C1110.32 665.75 1110.32 799.88 1112.06 801.62C1113.68 803.24 1120.35 803.14 1121.73 801.48C1122.51 800.53 1122.92 783.49 1123.1 744.23L1123.36 688.32L1128.96 696.82C1134.34 705 1172.21 763.09 1187.63 786.82C1197.37 801.81 1198.33 802.82 1202.91 802.82C1204.95 802.82 1207.12 802.21 1207.75 801.46C1208.57 800.47 1208.8 781.39 1208.62 731.71ZM1864.9 664.89C1864.04 663.29 1862.82 662.82 1859.53 662.82C1857.18 662.82 1854.72 663.36 1854.06 664.02C1853.16 664.92 1852.86 676.83 1852.86 711.47C1852.86 741.67 1852.47 759.56 1851.74 763.02C1849.08 775.67 1841.07 785.62 1830.06 789.96C1821.93 793.16 1806.79 793.16 1798.66 789.96C1787.51 785.56 1779.67 775.82 1776.97 763.02C1776.25 759.57 1775.86 741.83 1775.86 712.2C1775.86 682.74 1775.49 666 1774.82 664.75C1773.3 661.91 1765.37 662 1763.83 664.88C1763.05 666.33 1762.84 681.04 1763.13 714.63C1763.57 766.99 1763.74 768.7 1769.91 780.91C1774.05 789.13 1780.44 795.25 1789.15 799.36C1809.99 809.19 1839.94 804.88 1852.84 790.19C1856.9 785.56 1861.51 776.25 1863.53 768.58C1864.91 763.31 1865.24 754.77 1865.59 714.64C1865.89 680.85 1865.69 666.37 1864.9 664.89ZM2184.66 792.02C2183.77 791.13 2174.28 790.82 2148.16 790.82H2112.86V728.02C2112.86 680.51 2112.57 664.93 2111.66 664.02C2110.4 662.75 2102.66 662.35 2101.53 663.48C2101.16 663.85 2100.86 694.81 2100.86 732.28C2100.86 783.94 2101.15 800.71 2102.06 801.62C2103.78 803.34 2182.94 803.34 2184.66 801.62C2185.32 800.96 2185.86 798.8 2185.86 796.82C2185.86 794.84 2185.32 792.68 2184.66 792.02ZM2420.29 662.82C2373.5 662.82 2371.9 662.88 2370.89 664.75C2369.38 667.57 2369.63 671.44 2371.43 673.25C2372.76 674.57 2376.19 674.82 2393.43 674.82H2413.86V737.78C2413.86 799.01 2413.91 800.78 2415.79 801.78C2418.41 803.18 2423.19 803.09 2424.66 801.62C2425.57 800.71 2425.86 785.13 2425.86 737.62V674.82H2445.93C2457.84 674.82 2466.78 674.4 2467.93 673.78C2469.25 673.07 2469.86 671.69 2469.86 669.36C2469.86 662.3 2473.81 662.82 2420.29 662.82ZM2704.88 665.38C2704.04 663.17 2703.31 662.82 2699.59 662.82C2697.21 662.82 2694.72 663.36 2694.06 664.02C2693.15 664.93 2692.86 681.61 2692.86 732.98C2692.86 798.96 2692.91 800.77 2694.79 801.78C2698.15 803.58 2702.61 803.02 2704.3 800.59C2705.67 798.64 2705.86 790.56 2705.86 733.16C2705.86 693.21 2705.48 666.95 2704.88 665.38ZM3038.43 663.88C3037.65 663.23 3035.06 662.84 3032.68 663.01L3028.36 663.32L3027.36 777.32L3017.17 761.82C3011.56 753.29 2994.85 727.64 2980.02 704.82L2953.06 663.32L2948.17 663.02C2945.48 662.86 2942.96 663.05 2942.57 663.44C2942.18 663.83 2941.86 694.81 2941.86 732.28C2941.86 783.94 2942.15 800.71 2943.06 801.62C2944.63 803.19 2950.02 803.16 2952.17 801.57C2953.71 800.42 2953.88 795.55 2954.11 744.35L2954.36 688.38L2991.14 745C3011.37 776.15 3028.62 801.9 3029.47 802.22C3031.85 803.14 3035.78 802.93 3037.93 801.78C3039.81 800.77 3039.86 798.96 3039.86 732.9C3039.86 675.38 3039.64 664.88 3038.43 663.88Z" fill="black"/>
</g>
<defs>
<clipPath id="clip0_191_224">
<rect width="4022.01" height="804.66" fill="white"/>
</clipPath>
</defs>
</svg>
