<svg width="424" height="147" viewBox="0 0 424 147" fill="none" xmlns="http://www.w3.org/2000/svg">
<g clip-path="url(#clip0_39_101)">
<path d="M127.58 45.78H106.59C103.19 45.78 100.43 43.02 100.43 39.62V19.03C100.43 8.54 91.89 0 81.4 0H65.15C54.65 0 46.12 8.54 46.12 19.03V41.05C46.12 41.63 46.59 42.1 47.17 42.1H53.13C53.71 42.1 54.18 41.63 54.18 41.05V19.03C54.18 12.98 59.1 8.06 65.15 8.06H81.4C87.45 8.06 92.37 12.98 92.37 19.03V39.61C92.37 47.46 98.75 53.84 106.6 53.84H127.59C133.64 53.84 138.56 58.76 138.56 64.81V81.06C138.56 87.11 133.64 92.03 127.59 92.03H81.03C66.22 92.03 54.18 79.98 54.18 65.18V59.14C54.18 58.56 53.71 58.09 53.13 58.09H47.17C46.59 58.09 46.12 58.56 46.12 59.14V65.18C46.12 84.44 61.78 100.1 81.04 100.1H127.58C138.08 100.1 146.61 91.56 146.61 81.07V64.81C146.61 54.32 138.07 45.78 127.58 45.78Z" fill="white"/>
<path d="M81.46 146.209C91.96 146.209 100.49 137.669 100.49 127.179V105.159C100.49 104.579 100.02 104.109 99.44 104.109H93.48C92.9 104.109 92.43 104.579 92.43 105.159V127.179C92.43 133.229 87.51 138.149 81.46 138.149H65.22C59.17 138.149 54.25 133.229 54.25 127.179V106.599C54.25 98.7494 47.87 92.3694 40.02 92.3694H19.03C12.98 92.3694 8.06 87.4494 8.06 81.3994V65.1494C8.06 59.0994 12.98 54.1794 19.03 54.1794H65.57C80.38 54.1794 92.42 66.2294 92.42 81.0294V87.0694C92.42 87.6494 92.89 88.1194 93.47 88.1194H99.43C100.01 88.1194 100.48 87.6494 100.48 87.0694V81.0294C100.48 61.7694 84.82 46.1094 65.56 46.1094H19.03C8.54 46.1094 0 54.6494 0 65.1494V81.3994C0 91.8994 8.54 100.429 19.03 100.429H40.02C43.42 100.429 46.18 103.189 46.18 106.589V127.169C46.18 137.669 54.72 146.199 65.21 146.199H81.46V146.209Z" fill="white"/>
<path d="M178.59 49.4512L171.46 68.0212H165.54L158.41 49.4512H164.33L168.52 60.3112L172.68 49.4512H178.59V49.4512Z" fill="white"/>
<path d="M189.67 65.5312H183.21L182.26 68.0212H176.34L183.47 49.4512H189.39L196.52 68.0212H190.6L189.67 65.5312ZM188.18 61.6612L186.45 57.1512L184.69 61.6612H188.18Z" fill="white"/>
<path d="M212.07 63.3412V68.0112H198.18V49.4512H203.42V63.3412H212.07Z" fill="white"/>
<path d="M228.2 63.3412V68.0112H214.31V49.4512H219.55V63.3412H228.2Z" fill="white"/>
<path d="M235.68 54.1212V56.2012H244.52V60.8812H235.68V63.3412H245.38V68.0112H230.44V49.4512H245.38V54.1312H235.68V54.1212Z" fill="white"/>
<path d="M253.38 61.9112L246.25 49.4512H252.25L256.01 56.9912L259.98 49.4512H265.74L258.63 61.9112V68.0212H253.39V61.9112H253.38Z" fill="white"/>
<path d="M274.53 49.4512H279.77L284.74 58.3112L289.71 49.4512H294.95V68.0212H289.71V58.0812L284.74 66.9412L279.77 58.0812V68.0212H274.53V49.4512Z" fill="white"/>
<path d="M303.45 54.1212V56.2012H312.29V60.8812H303.45V63.3412H313.15V68.0112H298.2V49.4512H313.14V54.1312H303.45V54.1212Z" fill="white"/>
<path d="M315.79 49.4512H321.03L326 58.3112L330.97 49.4512H336.21V68.0212H330.97V58.0812L326 66.9412L321.03 58.0812V68.0212H315.79V49.4512Z" fill="white"/>
<path d="M338.76 58.7209C338.76 53.5009 343.38 49.1309 348.87 49.1309C354.36 49.1309 358.98 53.5109 358.98 58.7209C358.98 63.9309 354.36 68.3409 348.87 68.3409C343.38 68.3409 338.76 63.9309 338.76 58.7209ZM353.57 58.7209C353.57 56.1009 351.41 53.8809 348.87 53.8809C346.33 53.8809 344.17 56.1009 344.17 58.7209C344.17 61.3709 346.33 63.5809 348.87 63.5809C351.41 63.5809 353.57 61.3709 353.57 58.7209Z" fill="white"/>
<path d="M372.27 68.0112L368.35 62.4212H366.73V68.0112H361.49V49.4512H370.38C374.54 49.4512 377.49 52.1312 377.49 55.9412C377.49 58.5912 376.08 60.6712 373.81 61.7212L378.24 68.0212H372.27V68.0112ZM366.73 57.6612H369.95C371.19 57.6612 372.08 56.9312 372.08 55.9312C372.08 54.9312 371.19 54.2012 369.95 54.2012H366.73V57.6612Z" fill="white"/>
<path d="M380.42 49.4512H385.66V68.0212H380.42V49.4512Z" fill="white"/>
<path d="M400.72 65.5312H394.26L393.31 68.0212H387.39L394.52 49.4512H400.44L407.57 68.0212H401.65L400.72 65.5312ZM399.23 61.6612L397.5 57.1512L395.74 61.6612H399.23Z" fill="white"/>
<path d="M423.12 63.3412V68.0112H409.23V49.4512H414.47V63.3412H423.12Z" fill="white"/>
<path d="M244.05 79.3203V95.0703H243.22V87.4603H232.98V95.0703H232.15V79.3203H232.98V86.6303H243.22V79.3203H244.05Z" fill="white"/>
<path d="M248.2 87.1791C248.2 82.7591 251.89 79.0391 256.27 79.0391C260.65 79.0391 264.31 82.7491 264.31 87.1791C264.31 91.5991 260.64 95.3391 256.27 95.3391C251.9 95.3391 248.2 91.5991 248.2 87.1791ZM263.48 87.1791C263.48 83.2191 260.18 79.8691 256.26 79.8691C252.32 79.8691 249.02 83.2191 249.02 87.1791C249.02 91.1691 252.32 94.5091 256.26 94.5091C260.18 94.5091 263.48 91.1591 263.48 87.1791Z" fill="white"/>
<path d="M267.7 92.8195L268.2 92.1795C269.64 93.6195 271.78 94.4895 273.93 94.4895C276.54 94.4895 278.4 93.0695 278.4 91.0695C278.4 89.2795 277.05 88.2495 273.63 87.4495C269.94 86.5995 268.47 85.4795 268.47 83.5095C268.47 80.8695 270.56 79.0195 273.51 79.0195C275.44 79.0195 277.41 79.8495 278.94 81.2695L278.44 81.9095C277.09 80.5995 275.3 79.8495 273.47 79.8495C271.02 79.8495 269.3 81.3395 269.3 83.4495C269.3 84.9595 270.65 85.8795 274.04 86.6995C277.73 87.5695 279.22 88.8095 279.22 91.0095C279.22 93.5295 277.02 95.3195 273.9 95.3195C271.59 95.3095 269.3 94.3995 267.7 92.8195Z" fill="white"/>
<path d="M283.42 79.3203H290.04C293.23 79.3203 295.49 81.3103 295.49 84.1303C295.49 86.9503 293.22 88.9403 290.04 88.9403H284.24V95.0603H283.41V79.3203H283.42ZM289.88 88.1203C292.68 88.1203 294.67 86.4703 294.67 84.1303C294.67 81.7903 292.68 80.1403 289.88 80.1403H284.24V88.1203H289.88V88.1203Z" fill="white"/>
<path d="M299.21 79.3203H300.04V95.0703H299.21V79.3203Z" fill="white"/>
<path d="M309.8 80.1386H304.02V79.3086H316.4V80.1386H310.62V95.0586H309.79V80.1386H309.8Z" fill="white"/>
<path d="M329.83 91.0486H320.39L318.62 95.0586H317.7L324.64 79.3086H325.56L332.5 95.0586H331.58L329.83 91.0486ZM329.46 90.2286L325.11 80.3486L320.76 90.2286H329.46Z" fill="white"/>
<path d="M345.85 94.2403V95.0703H335.95V79.3203H336.77V94.2403H345.85Z" fill="white"/>
</g>
<defs>
<clipPath id="clip0_39_101">
<rect width="423.12" height="146.21" fill="white"/>
</clipPath>
</defs>
</svg>
