<svg width="1767" height="370" viewBox="0 0 1767 370" fill="none" xmlns="http://www.w3.org/2000/svg">
<path fill-rule="evenodd" clip-rule="evenodd" d="M291.668 0.588033C291.382 1.04903 282.166 22.337 271.187 47.893C260.208 73.449 239.2 122.259 224.502 156.359C209.804 190.459 194.407 226.234 190.285 235.859C186.163 245.484 182.463 253.711 182.063 254.141C181.414 254.84 174.811 238.511 143.938 159.859C139.081 147.484 127.445 117.897 118.081 94.11C108.717 70.323 100.29 48.048 99.355 44.61C98.419 41.172 97.619 34.534 97.577 29.859C97.51 22.48 97.87 20.606 100.303 15.651C101.925 12.348 104.769 8.62603 107.053 6.81703C114.838 0.651033 116.634 0.859032 55.5 0.859032C2.374 0.859032 0 0.937032 0 2.69003C0 3.69703 1.183 5.15403 2.63 5.92903C7.675 8.62903 16.525 19.577 21.707 29.529C26.678 39.077 38.102 66.496 68.507 141.859C76.606 161.934 84.698 181.959 86.489 186.359C95.204 207.767 146.236 333.672 152.962 350.359C159.035 365.426 161.003 369.359 162.472 369.359C163.896 369.359 165.529 366.476 169.55 356.859C176.559 340.097 197.817 289.681 219.515 238.359C229.282 215.259 238.954 192.309 241.009 187.359C244.436 179.105 256.679 149.996 268.473 122.063C271.096 115.851 273.349 110.901 273.479 111.063C273.61 111.226 276.98 119.459 280.968 129.359C284.956 139.259 293.293 159.509 299.494 174.359C313.206 207.194 323.492 232.049 330.531 249.359C333.438 256.509 343.211 280.134 352.248 301.859C361.284 323.584 371.324 347.771 374.558 355.609C378.673 365.58 380.92 369.859 382.043 369.859C383.239 369.859 394.134 343.671 424.791 267.109C447.419 210.597 473.077 146.584 481.808 124.859C490.54 103.134 500.486 78.159 503.911 69.359C516.421 37.222 529.021 15.325 539.398 7.68803C541.886 5.85703 543.94 3.57103 543.961 2.60903C543.997 0.972032 541.539 0.859032 506 0.859032C464.308 0.859032 464.586 0.813031 471.323 6.53603C482.547 16.069 485.691 32.303 480.199 52.359C478.484 58.623 464.307 94.623 415.812 215.859C407.562 236.484 400.501 253.918 400.121 254.601C399.733 255.297 394.747 244.314 388.771 229.601C382.909 215.168 374.224 193.909 369.471 182.359C364.719 170.809 355.725 148.759 349.485 133.359C298.155 6.67504 293.918 -3.05397 291.668 0.588033ZM587 64.272C587 65.05 588.859 67.053 591.131 68.724C597.031 73.063 602.609 80.96 605.234 88.689L607.5 95.359L607.782 207.359C608.087 328.118 608.079 328.33 602.886 339.378C600.33 344.816 594.937 351.117 590.483 353.87C588.464 355.117 587 356.829 587 357.941C587 359.807 588.389 359.859 638 359.859C666.05 359.859 689 359.495 689 359.05C689 357.755 686.807 355.441 682.331 352.013C676.991 347.923 672.539 341.17 669.729 332.901L667.506 326.359L667.217 215.859C667.03 144.32 667.288 103.038 667.947 98.776C670.143 84.591 674.68 76.18 683.94 69.127C686.66 67.054 688.912 64.797 688.943 64.109C688.988 63.125 678.164 62.859 638 62.859C594.721 62.859 587 63.073 587 64.272ZM793 64.168C793 64.888 795.454 67.597 798.454 70.187C805.599 76.354 810.505 86.159 811.964 97.181C813.366 107.771 813.366 317.007 811.965 325.646C810.09 337.199 807.364 342.705 799.85 350.115C796.083 353.831 793 357.544 793 358.365C793 359.683 808.731 359.859 926.282 359.859H1059.56L1066.69 328.611C1073.55 298.519 1073.88 295.949 1070.88 295.874C1070.54 295.866 1069.15 297.547 1067.78 299.609C1063.61 305.915 1053.84 315.47 1047.28 319.655C1040.16 324.193 1030.87 328.107 1020.01 331.139C1012.77 333.159 1009.94 333.249 942.25 333.597L872 333.959L872.017 218.159C872.036 94.05 872.011 94.707 877.046 84.715C880.113 78.63 885.291 72.493 890.539 68.724C892.993 66.962 895 64.921 895 64.189C895 63.1 885.779 62.859 844 62.859C802.635 62.859 793 63.106 793 64.168ZM1118 64.643C1118 65.625 1119.33 67.215 1120.96 68.176C1126.74 71.591 1132.86 80.7 1135.87 90.359C1138.15 97.688 1138.84 313.606 1136.62 326.444C1134.72 337.463 1130.91 344.827 1123.75 351.331C1113.36 360.762 1099.36 359.9 1258.19 359.612L1398.37 359.359L1403.19 331.359C1408.01 303.41 1408.5 298.359 1406.38 298.359C1405.76 298.359 1402.91 301.139 1400.03 304.538C1390.67 315.609 1378.7 323.589 1364.5 328.23C1348.32 333.516 1342.58 333.847 1266.75 333.853L1197 333.859V274.297V214.735L1251.25 215.096C1303.64 215.444 1305.77 215.533 1313.48 217.676C1323.18 220.372 1331.05 224.926 1335.84 230.609C1337.81 232.946 1340.23 234.859 1341.21 234.859C1342.89 234.859 1343 232.912 1343 202.432C1343 172.353 1342.87 169.98 1341.25 169.648C1340.16 169.424 1337.92 171.026 1335.31 173.902C1330.42 179.291 1321.96 184.066 1313.5 186.214C1301.99 189.135 1287.9 189.859 1242.53 189.859H1196.98L1197.24 139.109L1197.5 88.359L1261 88.381C1325.65 88.403 1333.57 88.774 1347.59 92.425C1362 96.178 1374.49 104.095 1382.41 114.494C1386.25 119.537 1387.56 120.631 1388.89 119.918C1390.43 119.091 1390.34 116.933 1387.57 90.942L1384.58 62.859H1251.29C1124.04 62.859 1118 62.94 1118 64.643ZM1440 64.109C1440 64.797 1442.59 66.695 1445.75 68.328C1449.09 70.05 1454.65 74.457 1459 78.828C1466.34 86.202 1472 92.601 1472 93.533C1472 93.791 1472.56 94.627 1473.25 95.392C1473.94 96.157 1476.44 99.612 1478.81 103.071C1481.18 106.529 1503.79 138.939 1529.06 175.092L1575 240.826L1574.98 280.592C1574.96 322.933 1574.47 328.63 1569.97 338.208C1567.34 343.787 1559.91 352.335 1555.87 354.426C1554.18 355.3 1553 356.722 1553 357.885C1553 359.825 1553.89 359.859 1604.5 359.859C1653.51 359.859 1656 359.771 1656 358.052C1656 357.049 1654.02 354.847 1651.55 353.108C1642.46 346.696 1637.14 336.217 1635.05 320.537C1634.47 316.234 1634 295.829 1634 275.192V237.67L1658.17 203.014C1671.47 183.954 1686.02 163.184 1690.52 156.859C1695.01 150.534 1705.57 135.459 1713.99 123.359C1737.59 89.461 1750.05 75.017 1761.48 68.319C1770.6 62.974 1769.85 62.859 1726 62.859C1694.67 62.859 1686 63.13 1686 64.109C1686 64.797 1687.63 66.657 1689.62 68.244C1698.69 75.487 1699.8 91.375 1692.27 106.342C1689.54 111.776 1622.03 209.89 1621.08 209.811C1620.76 209.785 1614.52 200.898 1607.21 190.061C1599.9 179.225 1587.81 161.359 1580.34 150.359C1572.87 139.359 1561.9 123.139 1555.96 114.316C1543.86 96.342 1540.47 88.567 1541.56 81.288C1542.35 76.011 1546.23 69.742 1550.14 67.438C1551.71 66.507 1553 65.096 1553 64.302C1553 63.062 1545.07 62.859 1496.5 62.859C1451.97 62.859 1440 63.124 1440 64.109Z" fill="white"/>
</svg>
